<svg xmlns="http://www.w3.org/2000/svg" viewBox="0 0 980 280" width="980" height="280" role="img" aria-label="Cleat">
  <rect x="8" y="22" width="236" height="236" rx="52" fill="#161b22" stroke="#30363d" stroke-width="8"/>
  <g fill="none" stroke="#ff9b3e" stroke-width="1.5" stroke-linecap="round" stroke-linejoin="round" transform="translate(62 76) scale(6.333333)">
    <path d="M15.362 5.214A8.252 8.252 0 0 1 12 21 8.25 8.25 0 0 1 6.038 7.047 8.287 8.287 0 0 0 9 9.601a8.983 8.983 0 0 1 3.361-6.867 8.21 8.21 0 0 0 3 2.48Z"/>
    <path d="M12 18a3.75 3.75 0 0 0 .495-7.468 5.99 5.99 0 0 0-1.925 3.547 5.975 5.975 0 0 1-2.133-1.001A3.75 3.75 0 0 0 12 18Z"/>
  </g>
  <text x="284" y="186" fill="#e6edf3" font-family="Space Grotesk, Inter, ui-sans-serif, system-ui, sans-serif" font-size="132" font-weight="600" letter-spacing="-0.04em">Cleat</text>
</svg>
